<svg xmlns="http://www.w3.org/2000/svg" xmlns:xlink="http://www.w3.org/1999/xlink" aria-hidden="true" role="img" class="iconify iconify--material-symbols" width="32" height="32" preserveAspectRatio="xMidYMid meet" viewBox="0 0 24 24"><path fill="#000000" d="M19.95 21q-3.225 0-6.287-1.438q-3.063-1.437-5.425-3.8q-2.363-2.362-3.8-5.425Q3 7.275 3 4.05q0-.45.3-.75t.75-.3H8.1q.35 0 .625.225t.325.575l.65 3.5q.05.35-.012.637q-.063.288-.288.513L7 10.9q1.05 1.8 2.625 3.375T13.1 17l2.35-2.35q.225-.225.588-.338q.362-.112.712-.062l3.45.7q.35.075.575.337q.225.263.225.613v4.05q0 .45-.3.75t-.75.3Z"></path></svg>